# xmcd CD database file
#
# Track frame offsets:
#	182
#	14367
#	26507
#	42017
#	51560
#	75555
#	84542
#	94035
#	110982
#	126640
#	144437
#	153400
#	175612
#	185002
#	198652
#
# Disc length: 2899 seconds
#
# Revision: 0
# Processed by: cddbd v1.4PL0 Copyright (c) Steve Scherf et al.
# Submitted via: CD2WAV32(EN) R3.19
#
DISCID=ce0b510f
DTITLE=Various Artist - SONGS BY STEPHEN FOSTER vol.2
DYEAR=1900
DGENRE=
TTITLE0=The Voice of By Gone Days
TTITLE1=Better Times Are Coming
TTITLE2=Linger In Blissful Repose
TTITLE3=There Are Plenty of Fish In the Sea
TTITLE4=My Old Kentucky Home, Good Night
TTITLE5=The Soiree Polka
TTITLE6=Larry's Good Bye
TTITLE7=Come Where My Love Lies Dreaming
TTITLE8=We Are Coming, Father Abraam, 300,000 More
TTITLE9=Come With Thy Sweet Voice Again
TTITLE10=Katy Bell
TTITLE11=Hard Times Come Again No More
TTITLE12=Village Bells Polka
TTITLE13=The Hour For Thee and Me
TTITLE14=Summer Longings
EXTD=
EXTT0=
EXTT1=
EXTT2=
EXTT3=
EXTT4=
EXTT5=
EXTT6=
EXTT7=
EXTT8=
EXTT9=
EXTT10=
EXTT11=
EXTT12=
EXTT13=
EXTT14=
PLAYORDER=
